<?xml version="1.0" encoding="UTF-8"?>
<svg version="1.1" xmlns="http://www.w3.org/2000/svg" width="512" height="512">
<path d="M0 0 C1.14181229 -0.0033284 2.28362457 -0.0066568 3.46003723 -0.01008606 C5.87317503 -0.0151403 8.2863198 -0.01749485 10.69946289 -0.01733398 C14.36421446 -0.01951322 18.02866129 -0.03766532 21.69335938 -0.05664062 C24.0455719 -0.05957642 26.39778584 -0.06155997 28.75 -0.0625 C29.83371384 -0.06968552 30.91742767 -0.07687103 32.03398132 -0.08427429 C50.94846517 -0.02836815 50.94846517 -0.02836815 58.20703125 6.16796875 C66.08128115 14.83748031 67.08428787 28.6606885 69.31640625 39.8059082 C69.60246002 41.21310544 69.88901034 42.62020182 70.17601013 44.02720642 C70.78865919 47.0360749 71.39784985 50.04561425 72.00424194 53.05574989 C72.97679305 57.88337778 73.95733361 62.70936384 74.9387207 67.53520203 C76.50456572 75.23977572 78.06513468 82.94540708 79.62346554 90.65150374 C91.3421044 148.67115159 91.3421044 148.67115159 103.29922485 206.64195824 C103.81638224 209.12365868 104.33137681 211.60581092 104.84408569 214.08843422 C105.53932868 217.45121592 106.24293808 220.8121293 106.94921875 224.17260742 C107.15052902 225.15383009 107.35183929 226.13505276 107.55924988 227.14600945 C107.74836441 228.03623865 107.93747894 228.92646786 108.13232422 229.84367371 C108.37304153 230.99657284 108.37304153 230.99657284 108.61862183 232.17276287 C109.18470226 234.45588512 109.18470226 234.45588512 111.20703125 237.16796875 C113.79083302 237.41827852 113.79083302 237.41827852 116.20703125 237.16796875 C119.48642403 221.73378799 122.6514767 206.27674061 125.80557966 190.81654477 C126.5352338 187.24087328 127.26565183 183.66535783 127.9960022 180.08982849 C129.85868707 170.97017973 131.72040815 161.85033431 133.58203125 152.73046875 C134.64332303 147.53134572 135.70466163 142.33223225 136.7661128 137.13314176 C137.06829056 135.65300226 137.37044918 134.17285886 137.67258883 132.69271159 C139.33826615 124.53287429 141.00561019 116.37338357 142.67718506 108.2147522 C143.28713312 105.23709409 143.89699599 102.25941854 144.50683594 99.28173828 C144.65775932 98.54499036 144.8086827 97.80824244 144.96417952 97.04916883 C146.87094977 87.73847862 148.76379107 78.42510607 150.63957679 69.10812265 C151.91676348 62.76468843 153.20043714 56.42259032 154.48861992 50.08138007 C155.398203 45.60124267 156.2990029 41.11946178 157.19310093 36.63620996 C157.74667859 33.8720495 158.30901245 31.1097238 158.87377501 28.3478291 C159.25382939 26.47612091 159.62345952 24.60230531 159.9926796 22.72842979 C163.41704841 6.10882638 163.41704841 6.10882638 169.08203125 2.16796875 C174.14007351 0.54939523 178.9583686 0.0423874 184.25317383 0.02270508 C186.01078789 0.0131353 186.01078789 0.0131353 187.8039093 0.00337219 C189.05713486 0.00225937 190.31036041 0.00114655 191.6015625 0 C192.90349045 -0.0033284 194.2054184 -0.0066568 195.54679871 -0.01008606 C198.29789051 -0.01605644 201.04895101 -0.01792815 203.80004883 -0.01733398 C207.30332848 -0.01723255 210.80640459 -0.03087423 214.30963612 -0.04810619 C217.67778082 -0.06198456 221.04588964 -0.06131716 224.4140625 -0.0625 C225.66121536 -0.06968552 226.90836823 -0.07687103 228.1933136 -0.08427429 C244.56600518 -0.0416289 244.56600518 -0.0416289 248.82112122 3.51838684 C252.73381914 7.99903273 253.33208622 11.57502774 253.33845901 17.33001423 C253.34230016 18.62811034 253.3461413 19.92620644 253.35009885 21.26363879 C253.34931855 22.7127313 253.34843976 24.16182375 253.34747314 25.61091614 C253.35005595 27.14365564 253.35306888 28.67639448 253.35647655 30.20913237 C253.36455963 34.43215947 253.36633684 38.65516959 253.36707401 42.87820351 C253.36892228 47.42841495 253.37646845 51.97861752 253.38320923 56.52882385 C253.39680213 66.48327584 253.40281869 76.43772381 253.40721989 86.39218354 C253.40998056 92.6050152 253.41421758 98.81784529 253.41872406 105.03067589 C253.43091773 122.22438999 253.44121701 139.41810284 253.44459915 156.61182117 C253.44481872 157.71265783 253.44503828 158.81349448 253.4452645 159.94768981 C253.44548278 161.05119341 253.44570106 162.154697 253.44592595 163.2916401 C253.44636942 165.52784145 253.44681598 167.7640428 253.44726562 170.00024414 C253.44748705 171.10948247 253.44770848 172.2187208 253.44793662 173.36157241 C253.4518858 191.34075708 253.46934302 209.31990125 253.49262515 227.29907028 C253.51632294 245.74777829 253.52880028 264.19646597 253.52996707 282.64518946 C253.53088469 293.0076157 253.53665889 303.36998917 253.55478668 313.73240089 C253.57016643 322.55517414 253.57532071 331.37787831 253.56704858 340.20066241 C253.56313459 344.70364615 253.5641081 349.20649068 253.57810593 353.7094574 C253.59079997 357.83062513 253.58968711 361.95154842 253.57751521 366.0727156 C253.57555039 367.56464976 253.57867273 369.05660097 253.58735958 370.54851113 C253.59841387 372.57511248 253.58919457 374.60179415 253.57896805 376.62839985 C253.57956514 377.75454301 253.58016222 378.88068617 253.58077741 380.04095489 C253.06694309 384.34004131 251.4639191 387.61578797 248.74804688 390.96972656 C242.40701631 395.90029976 231.57700504 394.47284385 223.92333984 394.42871094 C221.71163519 394.41799106 219.50074252 394.42865316 217.2890625 394.44140625 C199.03023131 394.4618188 199.03023131 394.4618188 193.20703125 389.73046875 C189.97787728 385.59311523 190.05768617 381.97959487 190.05554199 376.95593262 C190.04919338 375.84657829 190.04919338 375.84657829 190.0427165 374.71481276 C190.0296716 372.22979504 190.02366145 369.74480942 190.01757812 367.25976562 C190.00963725 365.48096012 190.00124942 363.70215656 189.9924469 361.9233551 C189.97437783 358.08957991 189.95936656 354.25580904 189.94667053 350.42201233 C189.92647171 344.36362962 189.89881665 338.30529522 189.86999512 332.24694824 C189.80475754 318.2928447 189.74935586 304.33870527 189.69400787 290.38455963 C189.64318795 277.59741556 189.59031478 264.81028898 189.52948236 252.02318811 C189.50109773 245.99689552 189.4775145 239.97060867 189.45755768 233.94428253 C189.44418982 230.19986294 189.4267764 226.45547019 189.40824699 222.71107292 C189.40047803 220.9707755 189.39441412 219.23046954 189.39015388 217.49015999 C189.38412402 215.12006235 189.37208392 212.75006959 189.35852051 210.38000488 C189.35822452 209.68652812 189.35792853 208.99305137 189.35762358 208.27856016 C189.33476025 205.29168634 189.16037678 203.02800533 188.20703125 200.16796875 C186.55703125 200.49796875 184.90703125 200.82796875 183.20703125 201.16796875 C181.51706263 208.82328683 179.83371852 216.48005372 178.15288544 224.13738251 C177.70746903 226.16597495 177.26161816 228.19447156 176.81573486 230.22296143 C172.426573 250.20075934 168.12648545 270.1966688 163.88059235 290.20540619 C163.07421252 294.00393558 162.26665914 297.8022135 161.4586792 301.60040283 C161.05697321 303.48889891 161.05697321 303.48889891 160.64715195 305.41554642 C160.10466403 307.96580485 159.56213519 310.51605457 159.01956558 313.06629562 C157.39669197 320.69832317 155.78208411 328.33204657 154.17289543 335.96697044 C153.15023558 340.8098535 152.12015383 345.65113731 151.08823013 350.49205399 C150.605017 352.76669939 150.12495149 355.04201604 149.64825058 357.31803513 C148.98779176 360.46953896 148.31621554 363.6184854 147.64208984 366.76708984 C147.45402016 367.67799881 147.26595047 368.58890778 147.0721817 369.52742004 C143.83193131 384.47576356 143.83193131 384.47576356 138.76953125 389.66796875 C130.83046878 394.31522483 122.93670626 394.34969032 113.95703125 394.35546875 C112.97089844 394.36771484 111.98476562 394.37996094 110.96875 394.39257812 C94.67420407 394.42478078 94.67420407 394.42478078 88.33203125 389.73046875 C81.16399225 382.51015232 79.9446199 370.40009014 77.91064453 360.83764648 C77.60518852 359.42980736 77.29904644 358.02211695 76.99227905 356.61456299 C76.16714608 352.81958341 75.35140393 349.02264104 74.53731394 345.22527957 C73.67574827 341.21501941 72.80503959 337.2067452 71.93527222 333.19825745 C70.28614579 325.59166695 68.64455052 317.98347319 67.00596321 310.37460619 C64.61981334 299.29573446 62.22357086 288.21904538 59.82589531 277.142663 C59.64782376 276.32002301 59.46975222 275.49738302 59.28628457 274.64981455 C58.93019049 273.00478498 58.57407427 271.35976021 58.21793544 269.71474034 C57.19331176 264.9806763 56.17126109 260.24606649 55.1514467 255.51096421 C52.106178 241.37400423 49.03703272 227.24417479 45.80419922 213.14868164 C45.55498278 212.05690078 45.30576633 210.96511992 45.04899788 209.84025478 C44.8201232 208.85169522 44.59124851 207.86313566 44.35543823 206.84461975 C44.15669538 205.98420106 43.95795254 205.12378237 43.75318718 204.23729038 C43.27144678 202.12666938 43.27144678 202.12666938 42.20703125 200.16796875 C40.88703125 200.16796875 39.56703125 200.16796875 38.20703125 200.16796875 C36.74420178 203.09362769 37.06406649 206.03271859 37.06900024 209.23956299 C37.06476832 210.34446064 37.06476832 210.34446064 37.06045091 211.47167945 C37.05208324 213.95280983 37.05076481 216.43389571 37.04931641 218.91503906 C37.04464973 220.6888288 37.03950642 222.46261734 37.03392029 224.23640442 C37.0226262 228.06310158 37.01419832 231.8897909 37.00780106 235.71649933 C36.99713593 241.76722631 36.97689475 247.81789707 36.9546814 253.86859131 C36.89270816 271.07691878 36.83874557 288.28524331 36.80566406 305.49365234 C36.78732317 314.99242698 36.75839297 324.49110785 36.71765935 333.98981357 C36.69657868 339.01798525 36.68113059 344.04603869 36.67885208 349.0742569 C36.67670577 353.80536098 36.66083804 358.536219 36.63446236 363.26724815 C36.627267 365.00305258 36.62516954 366.73888682 36.62856483 368.47470284 C36.63246235 370.84623961 36.61799651 373.21699158 36.59902954 375.58843994 C36.60732408 376.61657047 36.60732408 376.61657047 36.61578619 377.66547132 C36.54261678 382.97289358 35.0826309 386.85171616 31.74804688 390.96972656 C25.40701631 395.90029976 14.57700504 394.47284385 6.92333984 394.42871094 C4.71163519 394.41799106 2.50074252 394.42865316 0.2890625 394.44140625 C-17.96976869 394.4618188 -17.96976869 394.4618188 -23.79296875 389.73046875 C-26.87351914 385.78351356 -26.91903611 382.84155606 -26.92439651 377.97468853 C-26.92823766 376.66962563 -26.9320788 375.36456273 -26.93603635 374.01995248 C-26.93525605 372.56299947 -26.93437726 371.10604652 -26.93341064 369.64909363 C-26.93599344 368.10810452 -26.93900636 366.56711609 -26.94241405 365.02612859 C-26.95049727 360.78029836 -26.95227435 356.53448502 -26.95301151 352.28864801 C-26.95485976 347.71389649 -26.96240591 343.13915379 -26.96914673 338.56440735 C-26.98273973 328.55623806 -26.98875621 318.54807276 -26.99315739 308.53989577 C-26.99591804 302.29356218 -27.00015506 296.04723014 -27.00466156 289.8008976 C-27.01685524 272.51453721 -27.02715452 255.22817807 -27.03053665 237.94181347 C-27.03075622 236.8350416 -27.03097578 235.72826972 -27.031202 234.58795931 C-27.03142028 233.47850582 -27.03163856 232.36905232 -27.03186345 231.22597903 C-27.03230692 228.97771974 -27.03275348 226.72946046 -27.03320312 224.48120117 C-27.03342455 223.36598161 -27.03364598 222.25076206 -27.03387412 221.10174797 C-27.03782331 203.0255655 -27.05528056 184.94942331 -27.07856265 166.87325641 C-27.10226029 148.32510731 -27.11473777 129.77697844 -27.11590457 111.22881395 C-27.1168222 100.81049647 -27.1225966 90.39223149 -27.14072418 79.97392845 C-27.15610373 71.10357816 -27.16125832 62.23329659 -27.15298608 53.36293551 C-27.14907202 48.83564885 -27.15004594 44.30850066 -27.16404343 39.78123093 C-27.17673705 35.63785855 -27.17562499 31.49472932 -27.16345271 27.3513575 C-27.16148782 25.85134804 -27.16461057 24.35132162 -27.17329708 22.85133602 C-27.18435056 20.81384288 -27.17513248 18.77626986 -27.16490555 16.73877239 C-27.16550264 15.6065537 -27.16609972 14.47433502 -27.16671491 13.30780667 C-26.73395387 9.67218528 -25.69697406 7.28183659 -23.79296875 4.16796875 C-16.48565791 -0.54118712 -8.38142298 0.00852692 0 0 Z " fill="#0D0E21" transform="translate(32.79296875,54.83203125)"/>
<path d="M0 0 C25.9104103 1.17774592 25.9104103 1.17774592 33.75 2.5625 C34.72404785 2.73104492 35.6980957 2.89958984 36.70166016 3.07324219 C75.39513359 10.26945327 109.79073862 28.75548764 138 56 C138.9827632 56.91960193 139.9658395 57.83886937 140.94921875 58.7578125 C173.69744043 89.86031409 195.68089201 137.63466554 197.12255859 182.84326172 C197.22065741 187.49958713 197.24659586 192.15523766 197.25 196.8125 C197.25067474 197.64047089 197.25134949 198.46844177 197.25204468 199.32150269 C197.23590108 211.78994189 196.73911918 223.79288153 194 236 C193.74259033 237.20849609 193.74259033 237.20849609 193.47998047 238.44140625 C185.2326919 276.58972226 166.80634304 308.94244151 140 337 C139.32582031 337.72703125 138.65164063 338.4540625 137.95703125 339.203125 C107.22354209 371.44380019 62.48766239 389.16803751 19 394 C12.73 394 6.46 394 0 394 C0 263.98 0 133.96 0 0 Z " fill="#0D0E21" transform="translate(308,55)"/>
</svg>
